<mxfile host="app.diagrams.net" modified="2021-06-02T13:39:07.616Z" agent="5.0 (Windows NT 10.0; Win64; x64) AppleWebKit/537.36 (KHTML, like Gecko) Chrome/81.0.4044.92 Safari/537.36" etag="TE0T1idRTJPUiNA88r32" version="14.6.9" type="github">
  <diagram id="LGcueUOSImnoDkA3aZYf" name="Page-1">
    <mxGraphModel dx="1038" dy="556" grid="1" gridSize="10" guides="1" tooltips="1" connect="1" arrows="1" fold="1" page="1" pageScale="1" pageWidth="850" pageHeight="1100" math="0" shadow="0">
      <root>
        <mxCell id="0" />
        <mxCell id="1" parent="0" />
        <object label="Search Restaurant" id="U4uF0FipN8E8lc0t1gmk-1">
          <mxCell style="ellipse;whiteSpace=wrap;html=1;" vertex="1" parent="1">
            <mxGeometry x="360" y="250" width="120" height="80" as="geometry" />
          </mxCell>
        </object>
        <object label="Get/check Menu" id="U4uF0FipN8E8lc0t1gmk-2">
          <mxCell style="ellipse;whiteSpace=wrap;html=1;" vertex="1" parent="1">
            <mxGeometry x="360" y="110" width="120" height="80" as="geometry" />
          </mxCell>
        </object>
        <object label="Pick items/check price from Menu" id="U4uF0FipN8E8lc0t1gmk-3">
          <mxCell style="ellipse;whiteSpace=wrap;html=1;" vertex="1" parent="1">
            <mxGeometry x="360" y="360" width="120" height="80" as="geometry" />
          </mxCell>
        </object>
        <mxCell id="U4uF0FipN8E8lc0t1gmk-4" value="Actor" style="shape=umlActor;verticalLabelPosition=bottom;verticalAlign=top;html=1;outlineConnect=0;" vertex="1" parent="1">
          <mxGeometry x="170" y="250" width="30" height="60" as="geometry" />
        </mxCell>
        <mxCell id="U4uF0FipN8E8lc0t1gmk-7" value="User&lt;br&gt;" style="text;html=1;align=center;verticalAlign=middle;resizable=0;points=[];autosize=1;strokeColor=none;" vertex="1" parent="1">
          <mxGeometry x="170" y="300" width="40" height="20" as="geometry" />
        </mxCell>
        <mxCell id="U4uF0FipN8E8lc0t1gmk-8" value="" style="endArrow=none;html=1;entryX=0;entryY=0.625;entryDx=0;entryDy=0;entryPerimeter=0;" edge="1" parent="1" target="U4uF0FipN8E8lc0t1gmk-2">
          <mxGeometry width="50" height="50" relative="1" as="geometry">
            <mxPoint x="210" y="240" as="sourcePoint" />
            <mxPoint x="260" y="190" as="targetPoint" />
          </mxGeometry>
        </mxCell>
        <mxCell id="U4uF0FipN8E8lc0t1gmk-9" value="" style="endArrow=none;html=1;entryX=0;entryY=0.361;entryDx=0;entryDy=0;entryPerimeter=0;" edge="1" parent="1" source="U4uF0FipN8E8lc0t1gmk-4" target="U4uF0FipN8E8lc0t1gmk-1">
          <mxGeometry width="50" height="50" relative="1" as="geometry">
            <mxPoint x="400" y="310" as="sourcePoint" />
            <mxPoint x="450" y="260" as="targetPoint" />
          </mxGeometry>
        </mxCell>
        <mxCell id="U4uF0FipN8E8lc0t1gmk-10" value="" style="endArrow=none;html=1;entryX=0;entryY=0.5;entryDx=0;entryDy=0;" edge="1" parent="1" target="U4uF0FipN8E8lc0t1gmk-3">
          <mxGeometry width="50" height="50" relative="1" as="geometry">
            <mxPoint x="200" y="330" as="sourcePoint" />
            <mxPoint x="270" y="320" as="targetPoint" />
          </mxGeometry>
        </mxCell>
      </root>
    </mxGraphModel>
  </diagram>
</mxfile>
